<svg xmlns="http://www.w3.org/2000/svg" viewBox="0 0 200 200" role="img" aria-label="Bamboo staff avatar">
  <defs>
    <linearGradient id="bg" x1="0" y1="0" x2="1" y2="1">
      <stop stop-color="#F4EBDD"/>
      <stop offset="1" stop-color="#DDE8D3"/>
    </linearGradient>
    <linearGradient id="robe" x1="0" y1="0" x2="0" y2="1">
      <stop stop-color="#6F8C62"/>
      <stop offset="1" stop-color="#355B41"/>
    </linearGradient>
  </defs>
  <rect width="200" height="200" rx="48" fill="url(#bg)"/>
  <path d="M24 158C65 124 113 128 176 156v44H24z" fill="#E3D2B8"/>
  <path d="M77 172c4-31 44-31 48 0z" fill="url(#robe)"/>
  <circle cx="101" cy="79" r="32" fill="#F1D0B9"/>
  <path d="M68 78c4-31 26-46 55-33 15 7 24 23 15 46-21-12-42-20-70-13z" fill="#233B2E"/>
  <path d="M58 35c-2 43-5 86-10 128" stroke="#789464" stroke-width="8" stroke-linecap="round"/>
  <path d="M46 74c-17-5-27-14-30-30 18 2 31 11 39 28zM53 109c-18 4-33 0-45-13 19-6 35-2 48 10zM151 34c-5 38-6 77-2 119" stroke="#789464" stroke-width="7" stroke-linecap="round"/>
  <path d="M144 66c14-12 29-16 47-11-9 16-24 24-43 22zM151 104c16-7 32-7 47 2-13 12-28 16-46 9z" fill="#9AAE77"/>
  <circle cx="88" cy="84" r="3" fill="#25362B"/>
  <circle cx="114" cy="84" r="3" fill="#25362B"/>
  <path d="M91 101c8 5 16 5 23 0" stroke="#A66E55" stroke-width="4" stroke-linecap="round"/>
</svg>
