<svg xmlns="http://www.w3.org/2000/svg" viewBox="0 0 200 200" role="img" aria-label="Campus lantern staff avatar">
  <defs>
    <linearGradient id="bg" x1="0" y1="0" x2="1" y2="1">
      <stop stop-color="#F2E5D4"/>
      <stop offset=".6" stop-color="#E7D7B8"/>
      <stop offset="1" stop-color="#C9D9CA"/>
    </linearGradient>
    <radialGradient id="glow" cx="50%" cy="50%" r="50%">
      <stop stop-color="#FFE6A8"/>
      <stop offset="1" stop-color="#D99B50"/>
    </radialGradient>
  </defs>
  <rect width="200" height="200" rx="48" fill="url(#bg)"/>
  <path d="M40 155h120v45H40z" fill="#B8A17F"/>
  <path d="M35 155h130" stroke="#315243" stroke-width="6" stroke-linecap="round"/>
  <path d="M154 38v82" stroke="#425D48" stroke-width="5" stroke-linecap="round"/>
  <rect x="133" y="79" width="42" height="46" rx="12" fill="url(#glow)" stroke="#7A5C37" stroke-width="4"/>
  <path d="M136 92h36M136 111h36" stroke="#7A5C37" stroke-width="3" opacity=".55"/>
  <circle cx="91" cy="82" r="31" fill="#F0D0BA"/>
  <path d="M61 81c2-27 21-42 47-37 19 4 30 18 29 40-23-9-47-10-76-3z" fill="#29372F"/>
  <path d="M63 174c8-33 52-35 61 0z" fill="#5D775B"/>
  <circle cx="81" cy="88" r="3" fill="#2F2926"/>
  <circle cx="106" cy="88" r="3" fill="#2F2926"/>
  <path d="M84 105c7 5 15 5 22 0" stroke="#A66E55" stroke-width="4" stroke-linecap="round"/>
</svg>
