<svg xmlns="http://www.w3.org/2000/svg" viewBox="0 0 200 200" role="img" aria-label="Sakura staff avatar">
  <defs>
    <radialGradient id="bg" cx="50%" cy="35%" r="70%">
      <stop stop-color="#FFF4EF"/>
      <stop offset="1" stop-color="#EAD9C8"/>
    </radialGradient>
    <linearGradient id="kimono" x1="0" y1="0" x2="1" y2="1">
      <stop stop-color="#D98986"/>
      <stop offset="1" stop-color="#7D8C65"/>
    </linearGradient>
  </defs>
  <rect width="200" height="200" rx="48" fill="url(#bg)"/>
  <circle cx="100" cy="84" r="33" fill="#F2D0BE"/>
  <path d="M66 81c5-25 19-42 45-40 21 2 36 16 37 41-30-8-51-8-82-1z" fill="#2A2926"/>
  <path d="M72 174c4-30 52-36 58 0z" fill="url(#kimono)"/>
  <path d="M92 124l10 19 12-19" stroke="#F6E8D7" stroke-width="8" stroke-linecap="round" stroke-linejoin="round"/>
  <path d="M35 64c23-4 42-17 55-41" stroke="#5D6E47" stroke-width="5" stroke-linecap="round"/>
  <path d="M47 57c-9-6-11-14-4-25 11 4 14 13 7 23zM68 44c-11-2-16-9-13-21 12 0 18 7 15 19zM153 54c15-11 27-13 38-5-3 15-17 19-35 11zM158 73c16 3 27 12 31 27-16 3-28-6-35-22z" fill="#E7A9A1"/>
  <circle cx="88" cy="88" r="3" fill="#372E2A"/>
  <circle cx="113" cy="88" r="3" fill="#372E2A"/>
  <path d="M92 105c7 5 15 5 22 0" stroke="#AD6C63" stroke-width="4" stroke-linecap="round"/>
</svg>
