<?xml version="1.0" encoding="UTF-8"?>
<svg xmlns="http://www.w3.org/2000/svg" viewBox="0 0 1524 1071">
  <defs>
    <style>
      .cls-1 {
        fill: none;
      }

      .cls-2 {
        fill: #a2d1a6;
      }
    </style>
  </defs>
  <g id="_图层_3" data-name="图层 3">
    <g>
      <path class="cls-2" d="M906.93,472.92c-2.98-5.8-8.09-8.34-13.83-9.38-17.07-3.07-34.62.03-50.08,7.74-6.72,3.35-11.61,8.14-18.97,11.29,20.98-25.08,39.49-57.69,31.09-89.45-.46-1.76-3.23-6.08-5.43-4.41-10.42,7.93-18.83,17.72-26.7,28.17-12.45,16.54-19.21,35.16-23.25,56.01-2.7-12.21-1.06-24.16-1.44-36.93-12.87-3.33-26.27-.15-37.22,7.19,13.5,30.95,18.91,58.09,17.11,91.13,6.18,5.15,13.53,7.07,22.14,5.08,4.58-1.5,13.55-6.21,14.52-12.34-2.05-7.8-6.72-14.46-7.99-21.61,34.61,4.84,74.65-10.8,100.04-32.51Z"/>
      <path class="cls-2" d="M796.45,426.71c-14.04-27.68-18.84-58.18-16.5-89.53-12.92-5.79-27.67-2.77-37.32,7.1,6.35,15.55,11.75,29.77,14.15,46.72-11.57-11.93-24.48-19.38-40.58-20.29-2-.11-4.21-1.58-5.47-.18-6.78,7.58,12.86,28.1,26.08,34.88-18.77,1.23-35.93,4.97-51.11,14.69-3.46,2.21-6.2,5.32-6.31,9.77,28.1,9.26,60.77,11.44,79.85-12.46,1.71,7.86-.63,16.82,1.54,18.63.85.71,2.42.91,3.62.26,18.4-10.01,28.95-3.85,31.19-5.92.6-.55,1.52-2.38.87-3.67Z"/>
    </g>
  </g>
  <g id="_图层_5" data-name="图层 5">
    <rect class="cls-1" x="642.25" y="286.94" width="283.46" height="283.46"/>
  </g>
</svg>