<?xml version="1.0" encoding="UTF-8"?>
<svg xmlns="http://www.w3.org/2000/svg" viewBox="642.25 286.94 283.46 283.46">
  <path fill="#a2d1a6" d="M906.93,472.92c-2.98-5.8-8.09-8.34-13.83-9.38-17.07-3.07-34.62.03-50.08,7.74-6.72,3.35-11.61,8.14-18.97,11.29,20.98-25.08,39.49-57.69,31.09-89.45-.46-1.76-3.23-6.08-5.43-4.41-10.42,7.93-18.83,17.72-26.7,28.17-12.45,16.54-19.21,35.16-23.25,56.01-2.7-12.21-1.06-24.16-1.44-36.93-12.87-3.33-26.27-.15-37.22,7.19,13.5,30.95,18.91,58.09,17.11,91.13,6.18,5.15,13.53,7.07,22.14,5.08,4.58-1.5,13.55-6.21,14.52-12.34-2.05-7.8-6.72-14.46-7.99-21.61,34.61,4.84,74.65-10.8,100.04-32.51Z"/>
  <path fill="#a2d1a6" d="M796.45,426.71c-14.04-27.68-18.84-58.18-16.5-89.53-12.92-5.79-27.67-2.77-37.32,7.1,6.35,15.55,11.75,29.77,14.15,46.72-11.57-11.93-24.48-19.38-40.58-20.29-2-.11-4.21-1.58-5.47-.18-6.78,7.58,12.86,28.1,26.08,34.88-18.77,1.23-35.93,4.97-51.11,14.69-3.46,2.21-6.2,5.32-6.31,9.77,28.1,9.26,60.77,11.44,79.85-12.46,1.71,7.86-.63,16.82,1.54,18.63.85.71,2.42.91,3.62.26,18.4-10.01,28.95-3.85,31.19-5.92.6-.55,1.52-2.38.87-3.67Z"/>
  <path d="M805.64,496.32c2.32,6.88,7.92,12.77,11.11,20.18-.05,6.21-8.22,12.19-12.53,14.36-8.21,3.24-15.77,2.44-22.65-1.73-3.14-32.94-12.52-58.97-30.48-87.57,9.73-8.89,22.52-14.02,35.74-12.65,2.27,12.57,2.43,24.64,6.92,36.3.9-21.21,4.81-40.64,14.66-58.84,6.23-11.51,13.1-22.44,22.22-31.83,1.92-1.98,5.3,1.88,6.02,3.55,13.03,30.16-.42,65.16-17.45,93.08,6.81-4.2,10.93-9.67,17.08-13.98,14.14-9.92,31.03-15.6,48.37-15.1,5.83.17,11.26,1.92,15.08,7.21-21.88,25.24-59.15,46.66-94.1,47.02ZM818.49,459.9c12.66-19.86,23.5-55.39,13.15-77.76-23.71,28.59-37.44,64.82-28.85,102.4l15.7-24.64ZM764.7,452.97c12.76,22.99,19.77,46.71,22.78,72.15,8.65,4.16,18.19.03,22.91-8.16-16.89-24.62-25.94-52.49-28.73-82.34-8.26.19-15.94,3.5-22.7,8.18.54,1.93,1.32,3.26,2.74,4.21,3.28-1.74,6.46-3.26,10.13-3.16,1.87.05,2.61,2.06,2.21,3.47-1.04,3.66-6.63,2.3-9.34,5.65ZM891.52,449.74c-12.74-4.98-35.31,1.48-46.63,9.12-12.78,8.63-23.12,19.08-33.39,31.18,29.78-2.89,58.67-19.32,80.02-40.3Z"/>
  <path d="M745.43,416.35c-15.31,26.47-47.94,29.17-77.11,24.19-.55-4.41,1.7-7.89,4.78-10.59,13.57-11.87,29.98-18.11,48.36-22.12-14.08-4.73-36.56-22.11-30.98-30.61,1.03-1.58,3.45-.45,5.44-.64,16.06-1.49,29.94,3.95,43.15,14.03-4.9-16.41-12.35-29.67-20.94-44.1,8.08-11.19,22.21-16.38,35.85-12.57,2.35,31.35,11.63,60.8,29.63,86.08.84,1.18.2,3.12-.31,3.75-1.9,2.38-13.25-2.14-29.96,10.49-1.09.82-2.68.85-3.62.28-2.41-1.46-1.42-10.67-4.29-18.19ZM749.83,350.71c-7.33-.62-12.79,3.12-13.52-1.52-.54-3.41,6.1-5.15,12.42-4.72l-.25-5.46c-8.47-1.31-16.69,1.56-23.11,8.04,6.66,11.18,12.2,22.2,17.15,34.19,5.78,14.4,8.73,28.97,11.38,45.28,6.67-4.08,13.15-7.16,21.17-7.83-13.09-20.77-21.9-43.23-25.22-67.98ZM741.19,405.06c-1.68-6.15-5.34-8.55-8.9-11.67-10.24-7.46-22.46-12.28-35.92-10.71,11.11,13.94,27.09,22.26,44.82,22.39ZM740.51,411.63c-24.47,1.88-47.02,8.41-64.8,23.93,24.32,3.65,53.88-.82,64.8-23.93Z"/>
</svg>
